<?xml version="1.0" encoding="utf-8"?>
<!-- Generator: Adobe Illustrator 27.1.1, SVG Export Plug-In . SVG Version: 6.00 Build 0)  -->
<svg version="1.1" id="Layer_1" xmlns="http://www.w3.org/2000/svg" xmlns:xlink="http://www.w3.org/1999/xlink" x="0px" y="0px"
	 viewBox="0 0 445 1023" style="enable-background:new 0 0 445 1023;" xml:space="preserve">
<style type="text/css">
	.st0{fill:#FFFFFF;}
	.st1{fill:#D4D4D4;}
</style>
<path class="st0" d="M345,1023H100C44.8,1023,0,978.2,0,923V100C0,44.8,44.8,0,100,0h245c55.2,0,100,44.8,100,100v823
	C445,978.2,400.2,1023,345,1023z"/>
<g>
	<path class="st1" d="M371.8,281.4c0-8.2-3.2-16.6-9.4-22.8c-12.6-12.6-33.2-12.6-45.7-0.1l-234,234c-6,6-9.4,14.6-9.4,22.8
		s3,16.4,9.4,22.8l233.7,233.7c12.3,13.1,33.5,13.3,46,0.8s12.5-33.2,0-45.7l0,0L150.8,515.8l211.6-211.6
		C368.6,297.9,371.8,289.6,371.8,281.4L371.8,281.4z"/>
</g>
</svg>
