<?xml version="1.0" encoding="utf-8"?>
<!-- Generator: Adobe Illustrator 27.1.1, SVG Export Plug-In . SVG Version: 6.00 Build 0)  -->
<svg version="1.1" id="Layer_1" xmlns="http://www.w3.org/2000/svg" xmlns:xlink="http://www.w3.org/1999/xlink" x="0px" y="0px"
	 viewBox="0 0 1685.3 375.4" style="enable-background:new 0 0 1685.3 375.4;" xml:space="preserve">
<style type="text/css">
	.st0{fill:#00AA95;}
	.st1{fill:#00FFDA;}
</style>
<g>
	<polygon class="st0" points="450,375.4 150,375.4 207.7,275.4 507.7,275.4 	"/>
	<polygon class="st1" points="207.7,275.4 57.7,15.5 0,115.5 150,375.4 	"/>
	<polygon class="st0" points="424.4,224.9 236.9,224.9 273,162.4 460.5,162.4 	"/>
	<polygon class="st1" points="273,162.4 179.2,0 143.1,62.5 236.9,224.9 	"/>
	<polygon class="st0" points="391.8,118.9 298,118.9 316.1,87.7 409.8,87.7 	"/>
	<polygon class="st1" points="316.1,87.7 269.2,6.5 251.2,37.7 298,118.9 	"/>
</g>
<g>
	<path d="M648.3,160.8h-13.8c-2.8,0-4.7-0.5-5.7-1.4c-1-0.9-1.5-2.8-1.5-5.5v-23.8c0-4.8,2.4-7.2,7.2-7.2h13.8
		c2.5,0,3.8-1.3,3.8-3.8V86.3c0-4.8,2.5-7.2,7.6-7.2h29c4.8,0,7.2,2.4,7.2,7.2V119c0,2.5,1.4,3.8,4.1,3.8h26.9
		c4.8,0,7.2,2.4,7.2,7.2v23.8c0,2.5-0.5,4.3-1.5,5.3c-1,1-2.9,1.6-5.7,1.6H700c-2.8,0-4.1,1.3-4.1,3.8v76.2c0,7.1,1.6,12.2,4.8,15.3
		c3.2,3.1,8.5,4.6,15.9,4.6h13.8c4.8,0,7.2,2.4,7.2,7.2v23.8c0,2.5-0.5,4.3-1.5,5.3c-1,1-2.9,1.5-5.7,1.5h-21
		c-18.2,0-32.2-4.8-42.2-14.5c-10-9.6-15-23.4-15-41.4v-78.3C652.1,162,650.8,160.8,648.3,160.8z"/>
	<path d="M767.9,93.2v-30c0-4.6,2.3-6.9,6.9-6.9h30c4.6,0,6.9,2.2,6.9,6.5v30.3c0,4.6-2.3,6.9-6.9,6.9h-30
		C770.2,100.1,767.9,97.8,767.9,93.2z M767.9,291.4V130.1c0-4.8,2.3-7.2,6.9-7.2h29.7c4.8,0,7.2,2.4,7.2,7.2v161.4
		c0,3-0.5,5-1.5,5.9c-1,0.9-2.8,1.4-5.3,1.4h-29.7C770.3,298.7,767.9,296.2,767.9,291.4z"/>
	<path d="M887.9,298.7h-29.3c-4.8,0-7.2-2.4-7.2-7.2V130.1c0-4.8,2.4-7.2,7.2-7.2h29.3c4.8,0,7.2,2.4,7.2,7.2v11.4h1.4
		c5-12.4,16.3-18.6,33.8-18.6h11c36.1,0,54.1,18.7,54.1,56.2v112.4c0,4.8-2.5,7.2-7.6,7.2h-29c-4.8,0-7.2-2.4-7.2-7.2V181.1
		c0-7.4-1.5-12.6-4.7-15.7c-3.1-3.1-8.3-4.6-15.7-4.6h-12.4c-15.9,0-23.8,8.7-23.8,26.2v104.5C895.2,296.2,892.7,298.7,887.9,298.7z
		"/>
	<path d="M1060.3,356.9h-22.1c-4.6,0-6.9-2.5-6.9-7.6v-23.1c0-5.1,2.3-7.6,6.9-7.6h7.2c14.5,0,24.3-2,29.5-6
		c5.2-4,9.1-11.8,11.9-23.3h-18.3c-4.4,0-7.2-2.4-8.6-7.2l-40.3-152.1c-1.4-4.8,0.3-7.2,5.2-7.2h30.7c4.6,0,7.5,2.4,8.6,7.2
		l29.7,127.2h1.4l29.3-127.2c0.9-4.8,3.8-7.2,8.6-7.2h29c5.7,0,8,2.5,6.9,7.6l-42.1,168.2c-5.1,19.1-12.9,33.6-23.4,43.4
		C1092.8,352,1078.4,356.9,1060.3,356.9z"/>
	<path d="M1194.1,291.4V63.5c0-4.8,2.4-7.2,7.2-7.2h29.3c4.8,0,7.2,2.4,7.2,7.2v77.6h1.4c2.5-6.2,7-10.9,13.4-14.1
		c6.4-3.2,13.2-4.8,20.3-4.8h11c18.2,0,32.2,4.8,42.1,14.5s14.8,23.6,14.8,41.7v64.1c0,18.2-4.9,32.1-14.8,41.7
		c-9.9,9.6-23.9,14.5-42.1,14.5h-82.8C1196.5,298.7,1194.1,296.2,1194.1,291.4z M1241.7,260.7h35.2c7.3,0,12.6-1.5,15.7-4.6
		c3.1-3.1,4.7-8.3,4.7-15.7v-60c0-7.4-1.6-12.6-4.7-15.7c-3.1-3.1-8.3-4.6-15.7-4.6h-15.2c-15.9,0-23.8,8.7-23.8,26.2v70.7
		C1237.9,259.5,1239.1,260.7,1241.7,260.7z"/>
	<path d="M1459.5,298.7h-30.7c-18.2,0-32.2-4.8-42.1-14.5c-9.9-9.6-14.8-23.6-14.8-41.7V179c0-18.1,4.9-32.1,14.8-41.7
		c9.9-9.7,23.9-14.5,42.1-14.5h30.7c17.9,0,31.9,4.9,41.9,14.6c10,9.8,15,23.6,15,41.6v63.4c0,17.9-5,31.8-15,41.5
		C1491.4,293.8,1477.5,298.7,1459.5,298.7z M1435.4,261.1h17.6c7.3,0,12.6-1.5,15.7-4.5c3.1-3,4.7-8.2,4.7-15.5v-60.7
		c0-7.4-1.6-12.5-4.7-15.5c-3.1-3-8.3-4.5-15.7-4.5h-17.6c-7.4,0-12.5,1.5-15.5,4.5c-3,3-4.5,8.2-4.5,15.5v60.7
		c0,7.4,1.5,12.5,4.5,15.5C1422.9,259.6,1428.1,261.1,1435.4,261.1z"/>
	<path d="M1579.2,298.7h-34.8c-6,0-7.6-2.4-4.8-7.2L1583,209l-43.4-78.9c-2.3-4.8-0.9-7.2,4.1-7.2h35.2c5.5,0,9.1,2.4,10.7,7.2
		l21.7,52.4h1.4l19-52.4c1.6-4.8,5.2-7.2,10.7-7.2h34.5c6,0,7.5,2.4,4.5,7.2l-41.4,78.9l44.5,82.4c1.2,2.1,1.3,3.8,0.5,5.2
		c-0.8,1.4-2.4,2.1-4.7,2.1h-35.5c-4.8,0-8.3-2.4-10.3-7.2l-21.7-52.8h-1.4l-21.7,52.8C1587.9,296.2,1584.5,298.7,1579.2,298.7z"/>
</g>
</svg>
