<?xml version="1.0" encoding="utf-8"?>
<!-- Generator: Adobe Illustrator 27.5.0, SVG Export Plug-In . SVG Version: 6.00 Build 0)  -->
<svg version="1.1" id="Layer_1" xmlns="http://www.w3.org/2000/svg" xmlns:xlink="http://www.w3.org/1999/xlink" x="0px" y="0px"
	 viewBox="0 0 474.3 226" style="enable-background:new 0 0 474.3 226;" xml:space="preserve">
<style type="text/css">
	.st0{fill:#D4D4D4;}
</style>
<g>
	<path class="st0" d="M440.7,80.6H221.8V80C207.4,35.1,164.3,0,113.4,0C50.9,0,0,50.3,0,112.8c0,0.1,0,0.1,0,0.2s0,0.1,0,0.2
		C0,175.7,50.9,226,113.4,226c50.8,0,94-30.7,108.3-80.6H298v60.8h57v-60.8h27.8v60.8h57v-60.8h0.9c18.6,0,33.6-13.8,33.6-32.4
		C474.3,94.5,459.2,80.6,440.7,80.6L440.7,80.6z M113.4,171.9c-32.3,0-58.6-26.3-58.6-58.6s26.3-58.6,58.6-58.6S172,81,172,113.3
		S145.8,171.9,113.4,171.9z"/>
</g>
</svg>
